<svg xmlns="http://www.w3.org/2000/svg" viewBox="0 0 48 32" fill="none">
  <rect width="48" height="32" rx="4" fill="#1A1F71"/>
  <path d="M19.5 21H17L18.8 11H21.3L19.5 21Z" fill="white"/>
  <path d="M28.3 11.2C27.8 11 27 10.8 26 10.8C23.5 10.8 21.7 12.1 21.7 14C21.7 15.4 23 16.2 24 16.7C25 17.2 25.3 17.5 25.3 18C25.3 18.7 24.4 19 23.6 19C22.5 19 21.9 18.8 21 18.5L20.6 18.3L20.2 21C21 21.3 22.3 21.6 23.6 21.6C26.3 21.6 28 20.3 28 18.3C28 17.2 27.3 16.3 25.8 15.6C24.9 15.1 24.3 14.8 24.3 14.3C24.3 13.8 24.9 13.3 26.1 13.3C27.1 13.3 27.8 13.5 28.3 13.7L28.6 13.8L29 11.2H28.3Z" fill="white"/>
  <path d="M33.1 11H31.1C30.5 11 30 11.2 29.8 11.8L26 21H28.7L29.2 19.5H32.5L32.8 21H35.2L33.1 11ZM30 17.3L31.2 13.8L31.9 17.3H30Z" fill="white"/>
  <path d="M16.5 11L14 18.1L13.7 16.8C13.2 15.2 11.7 13.4 10 12.5L12.3 21H15L19.3 11H16.5Z" fill="white"/>
  <path d="M12.2 11H8L8 11.2C11.2 12 13.4 14 14.2 16.4L13.4 11.9C13.2 11.2 12.8 11 12.2 11Z" fill="#F9A533"/>
</svg>
